<svg width="22" height="21" viewBox="0 0 22 21" fill="none" xmlns="http://www.w3.org/2000/svg">
<path d="M7.61845 10.3903C7.61845 8.59534 9.11724 7.14027 10.9661 7.14027C12.8149 7.14027 14.3137 8.59534 14.3137 10.3903C14.3137 12.1852 12.8149 13.6403 10.9661 13.6403C9.11724 13.6403 7.61845 12.1852 7.61845 10.3903Z" fill="#05386D"/>
<path fill-rule="evenodd" clip-rule="evenodd" d="M10.4106 0.228781C10.7143 -0.0762604 11.2179 -0.0762604 11.5216 0.228781L14.1712 2.89027H17.9189C18.3455 2.89027 18.6914 3.22605 18.6914 3.64027V7.27866L21.4329 9.85098C21.7471 10.1458 21.7471 10.6347 21.4329 10.9296L18.6914 13.5019V17.1403C18.6914 17.5545 18.3455 17.8903 17.9189 17.8903H14.1712L11.5216 20.5518C11.2179 20.8568 10.7143 20.8568 10.4106 20.5518L7.761 17.8903H4.0133C3.58665 17.8903 3.24077 17.5545 3.24077 17.1403V13.5019L0.499326 10.9296C0.185121 10.6347 0.18512 10.1458 0.499325 9.85098L3.24077 7.27866V3.64027C3.24077 3.22605 3.58665 2.89027 4.0133 2.89027H7.761L10.4106 0.228781ZM10.9661 5.64027C8.26392 5.64027 6.07338 7.76691 6.07338 10.3903C6.07338 13.0136 8.26392 15.1403 10.9661 15.1403C13.6683 15.1403 15.8588 13.0136 15.8588 10.3903C15.8588 7.76691 13.6683 5.64027 10.9661 5.64027Z" fill="#05386D"/>
</svg>
