<svg width="25" height="26" viewBox="0 0 25 26" fill="none" xmlns="http://www.w3.org/2000/svg">
<rect width="25" height="25" transform="translate(0 0.5)" fill="white"/>
<path d="M16.1458 14.8229C16.1458 14.6157 16.2281 14.417 16.3747 14.2705C16.5212 14.124 16.7199 14.0417 16.9271 14.0417H19.0104C19.2176 14.0417 19.4163 14.124 19.5628 14.2705C19.7094 14.417 19.7917 14.6157 19.7917 14.8229C19.7917 15.0301 19.7094 15.2288 19.5628 15.3753C19.4163 15.5219 19.2176 15.6042 19.0104 15.6042H16.9271C16.7199 15.6042 16.5212 15.5219 16.3747 15.3753C16.2281 15.2288 16.1458 15.0301 16.1458 14.8229ZM3.125 5.70833H3.13958C3.20364 5.13541 3.4766 4.60618 3.90629 4.22185C4.33598 3.83751 4.89225 3.62502 5.46875 3.625H17.4479C17.7557 3.625 18.0605 3.68562 18.3448 3.80341C18.6292 3.92119 18.8876 4.09383 19.1052 4.31147C19.3228 4.52911 19.4955 4.78748 19.6133 5.07184C19.731 5.35619 19.7917 5.66096 19.7917 5.96875V6.84062C20.5332 7.01668 21.1936 7.43769 21.6662 8.03559C22.1387 8.63349 22.3958 9.37331 22.3958 10.1354V18.9896C22.3958 19.8875 22.0392 20.7485 21.4043 21.3834C20.7694 22.0183 19.9083 22.375 19.0104 22.375H6.51042C5.61255 22.375 4.75145 22.0183 4.11657 21.3834C3.48168 20.7485 3.125 19.8875 3.125 18.9896V5.70833ZM19.0104 8.3125H4.6875V18.9896C4.6875 19.9958 5.50417 20.8125 6.51042 20.8125H19.0104C19.4939 20.8125 19.9575 20.6204 20.2994 20.2786C20.6413 19.9367 20.8333 19.4731 20.8333 18.9896V10.1354C20.8333 9.65195 20.6413 9.18828 20.2994 8.84642C19.9575 8.50456 19.4939 8.3125 19.0104 8.3125V8.3125ZM18.2292 6.75V5.96875C18.2292 5.76155 18.1469 5.56284 18.0003 5.41632C17.8538 5.26981 17.6551 5.1875 17.4479 5.1875H5.46875C5.26155 5.1875 5.06284 5.26981 4.91632 5.41632C4.76981 5.56284 4.6875 5.76155 4.6875 5.96875C4.6875 6.17595 4.76981 6.37466 4.91632 6.52118C5.06284 6.66769 5.26155 6.75 5.46875 6.75H18.2292Z" fill="black"/>
</svg>
